<mxfile host="app.diagrams.net" modified="2023-09-26T15:05:49.751Z" agent="Mozilla/5.0 (X11; Linux x86_64) AppleWebKit/537.36 (KHTML, like Gecko) Chrome/116.0.0.0 Safari/537.36" version="21.3.7" etag="0oZYTaSNNvyIV1aNMOf0" type="github">
  <diagram name="Page-1" id="X79x4wnL9i4SAHbFtqks">
    <mxGraphModel>
      <root>
        <mxCell id="0" />
        <mxCell id="1" parent="0" />
      </root>
    </mxGraphModel>
  </diagram>
</mxfile>
